<?xml version="1.0" standalone="no"?>
<!DOCTYPE svg PUBLIC "-//W3C//DTD SVG 20010904//EN"
 "http://www.w3.org/TR/2001/REC-SVG-20010904/DTD/svg10.dtd">
<svg version="1.0" xmlns="http://www.w3.org/2000/svg"
 width="249.000000pt" height="249.000000pt" viewBox="0 0 249.000000 249.000000"
 preserveAspectRatio="xMidYMid meet">
<metadata>
Created by potrace 1.15, written by Peter Selinger 2001-2017
</metadata>
<g transform="translate(0.000000,249.000000) scale(0.100000,-0.100000)"
fill="#000000" stroke="none">
<path d="M936 2473 l-929 -3 6 -533 c4 -292 7 -846 7 -1229 l0 -698 74 0 c50
0 76 4 79 13 4 9 6 9 6 0 1 -16 37 -17 47 -2 4 8 9 7 15 -2 7 -11 12 -12 29
-1 12 7 20 8 20 2 0 -14 37 -12 44 3 5 9 7 9 12 0 7 -17 31 -17 38 0 5 9 7 9
12 0 7 -15 34 -17 34 -3 0 6 7 10 16 10 8 0 12 -4 9 -10 -3 -5 3 -10 14 -10
10 0 22 6 25 13 5 9 7 9 12 0 8 -18 34 -16 34 2 0 8 5 15 10 15 6 0 10 -7 10
-15 0 -18 26 -20 33 -2 4 9 8 8 16 -3 9 -13 14 -13 31 -2 16 10 25 10 35 2 10
-8 16 -7 24 7 9 16 12 16 21 3 8 -12 13 -13 30 -2 12 7 20 8 20 2 0 -14 37
-12 43 3 4 9 6 9 6 0 1 -16 1271 -18 1271 -3 0 6 8 5 19 -2 15 -9 23 -9 35 1
11 9 16 10 16 2 0 -6 9 -11 20 -11 11 0 20 5 20 10 0 6 8 5 20 -2 17 -11 22
-10 30 2 9 13 11 13 20 0 8 -12 13 -13 30 -2 12 7 20 8 20 2 0 -5 9 -10 20
-10 11 0 20 5 20 11 0 8 4 8 13 1 6 -5 30 -9 51 -8 47 1 68 25 49 56 -8 12 -9
21 -3 25 13 8 13 52 0 60 -8 5 -7 11 0 20 8 10 10 100 6 312 -3 164 -5 677 -5
1141 l-1 842 -302 -2 c-167 -2 -721 -4 -1232 -5z m444 -365 c-6 -51 -16 -109
-20 -128 -8 -32 -21 -137 -25 -201 -1 -14 -5 -32 -10 -39 -5 -9 -1 -19 12 -29
11 -9 22 -23 26 -31 4 -12 6 -11 6 3 1 10 7 28 15 40 8 12 22 45 31 72 9 28
29 78 46 113 16 35 29 68 29 75 0 7 9 26 20 42 11 17 20 40 20 53 0 12 5 22
10 22 6 0 10 -4 10 -10 0 -14 27 -12 33 3 3 8 13 2 30 -17 23 -27 25 -27 35
-10 6 10 13 16 17 13 10 -10 -29 -69 -43 -64 -8 3 -10 -3 -6 -19 3 -14 0 -29
-10 -39 -9 -8 -16 -22 -16 -29 0 -8 -18 -50 -40 -93 -43 -86 -45 -89 -30 -80
6 3 10 2 10 -4 0 -6 -13 -17 -28 -25 -16 -8 -40 -32 -55 -54 -29 -44 -73 -61
-82 -32 -9 29 -43 54 -57 42 -7 -5 -32 -15 -56 -22 -36 -9 -46 -18 -58 -47
l-15 -36 -20 32 c-22 37 -25 37 -109 11 -36 -11 -68 -20 -71 -20 -3 0 -11 16
-19 35 -8 19 -17 35 -21 35 -4 0 -9 8 -12 18 -4 9 -20 40 -37 67 -17 28 -38
65 -47 83 -9 17 -20 32 -25 32 -4 0 -8 16 -8 36 0 19 -4 33 -9 29 -5 -3 -12
-1 -15 4 -8 13 17 55 34 59 8 2 24 11 35 21 11 9 32 22 47 29 17 7 26 17 22
25 -6 18 42 58 61 51 7 -3 15 -20 18 -37 4 -31 22 -86 37 -118 5 -9 14 -41 21
-72 8 -32 17 -57 21 -57 5 0 8 -11 8 -24 0 -14 5 -28 10 -31 6 -4 8 -11 5 -16
-4 -5 -3 -15 2 -21 4 -7 9 -22 10 -32 4 -26 13 -34 13 -12 0 9 5 14 10 11 6
-3 10 -15 10 -25 0 -10 3 -21 8 -23 6 -5 2 86 -14 278 -4 44 -9 115 -11 158
l-5 77 126 0 c111 0 126 2 126 17 0 9 3 14 6 10 3 -3 1 -47 -6 -99z m811 -235
c1 -54 1 -109 0 -123 0 -15 2 -19 6 -10 9 23 24 30 64 30 50 0 64 -30 63 -134
-1 -84 -18 -142 -53 -181 -14 -15 -20 -40 -23 -97 -4 -84 -3 -83 -35 -92 -18
-6 -22 -2 -26 21 -3 24 -4 23 -6 -8 -1 -31 -5 -38 -28 -45 -16 -4 -33 -8 -40
-9 -7 0 -18 -6 -25 -13 -6 -6 -24 -12 -40 -12 -68 0 -83 102 -68 467 6 147 12
268 13 269 1 1 19 4 39 8 l36 7 4 -82 c2 -44 2 -82 0 -84 -2 -2 -4 -95 -5
-207 -1 -200 6 -258 25 -207 8 18 24 361 28 561 0 26 9 31 58 37 9 1 12 -25
13 -96z m-1426 -249 c17 -34 20 -59 20 -184 l0 -144 -51 -12 c-29 -6 -68 -14
-88 -18 l-36 -7 0 90 c0 49 -4 101 -10 116 -8 22 -13 24 -30 15 -36 -19 -53
-58 -58 -134 -6 -103 9 -131 106 -194 113 -73 127 -102 127 -257 0 -116 -1
-123 -33 -188 -41 -83 -124 -174 -193 -211 -38 -21 -71 -30 -120 -34 -67 -5
-69 -4 -98 27 -40 43 -52 86 -58 206 -4 78 -2 103 8 111 17 13 159 64 177 64
8 0 12 -19 13 -57 1 -85 10 -107 42 -111 52 -6 96 70 83 142 -7 38 -37 69
-131 133 -57 39 -75 59 -100 107 -29 57 -30 66 -30 180 0 127 12 179 61 277
24 49 83 107 136 135 18 10 67 20 108 24 66 5 79 3 105 -15 17 -12 39 -39 50
-61z m1129 -10 c0 -38 -4 -165 -8 -282 l-8 -213 -29 -15 c-16 -8 -32 -13 -36
-12 -5 2 -6 54 -4 117 3 92 1 113 -10 109 -11 -3 -15 -34 -17 -119 -3 -121
-12 -143 -57 -151 -17 -3 -21 4 -25 42 l-5 45 -12 -40 c-17 -56 -82 -118 -118
-113 -41 5 -66 45 -71 114 -6 69 0 81 44 90 30 6 32 5 38 -35 8 -51 21 -61 34
-26 17 45 11 63 -39 119 -60 66 -69 101 -53 208 17 117 54 171 118 171 49 0
68 -34 73 -123 4 -90 -6 -113 -48 -108 -24 3 -26 7 -29 56 -5 88 -32 61 -32
-33 0 -50 2 -55 40 -85 40 -31 58 -72 62 -135 0 -16 6 77 12 207 6 130 14 239
17 243 4 3 19 7 35 8 l29 2 -3 -117 c-3 -103 -2 -117 12 -112 12 5 16 29 18
127 3 120 3 121 28 128 41 11 45 5 44 -67z m-490 -63 c3 -5 17 -116 31 -247
13 -132 27 -265 31 -296 7 -72 0 -94 -36 -107 -25 -8 -31 -7 -40 9 -5 10 -10
34 -10 54 0 57 -7 66 -41 54 -16 -5 -29 -11 -30 -11 0 -1 -6 -38 -12 -82 l-12
-80 -38 -9 c-23 -6 -41 -6 -46 0 -5 5 8 105 29 224 21 118 47 274 59 345 12
72 25 133 29 137 16 15 78 22 86 9z m-201 -38 c5 -9 -9 -474 -19 -620 l-6 -91
-44 -11 c-25 -6 -50 -9 -56 -5 -7 5 -9 41 -5 113 l6 106 -21 -81 c-21 -79 -23
-82 -64 -102 -51 -25 -58 -20 -71 58 l-10 55 -6 -45 c-3 -25 -9 -85 -13 -133
l-6 -89 -51 -24 c-30 -14 -55 -20 -61 -14 -15 15 49 769 67 787 17 16 90 34
100 24 4 -4 19 -76 32 -161 13 -84 26 -154 28 -156 2 -2 20 74 41 169 20 94
39 179 42 189 7 22 107 49 117 31z m801 -370 c24 -20 26 -24 10 -23 -43 5 -44
2 -44 -80 0 -76 -1 -80 -22 -80 -22 -1 -22 -2 -5 -14 16 -12 16 -14 2 -20 -9
-3 -27 1 -39 10 -13 8 -28 14 -32 13 -5 -1 -12 0 -16 1 -5 1 -11 3 -15 4 -5 1
-18 7 -29 14 -12 6 -24 9 -27 6 -3 -3 -13 -1 -23 4 -15 8 -13 12 17 25 19 8
55 24 81 36 50 22 62 41 61 104 -1 36 1 38 25 32 14 -3 39 -18 56 -32z m-337
-201 c-15 -16 -12 -21 41 -64 69 -55 137 -115 169 -146 23 -23 22 -48 -2 -38
-9 3 -11 -2 -8 -15 3 -10 0 -25 -6 -33 -9 -10 -9 -20 0 -40 7 -14 9 -29 5 -33
-8 -9 -27 18 -20 28 2 4 0 10 -6 14 -13 8 -26 -25 -14 -34 5 -3 18 -19 28 -35
13 -20 15 -31 7 -39 -8 -8 -11 -7 -11 5 0 9 -7 18 -15 22 -10 4 -15 -1 -15
-14 0 -10 -6 -23 -14 -27 -7 -4 -16 -15 -19 -23 -4 -11 -7 -10 -12 8 -4 12
-11 22 -14 22 -4 0 -23 21 -41 48 -19 26 -42 56 -51 67 -46 53 -78 94 -107
139 -18 27 -32 46 -32 41 0 -5 -5 -4 -12 3 -8 8 -16 6 -29 -9 -10 -12 -23 -18
-29 -14 -12 8 -4 -62 10 -80 4 -5 11 -26 15 -45 4 -19 11 -41 16 -50 4 -8 20
-49 34 -92 14 -42 34 -97 45 -123 21 -49 27 -115 10 -115 -5 0 -12 -11 -16
-25 -8 -31 -28 -28 -32 6 -2 13 -8 29 -13 35 -5 6 -29 69 -53 140 -25 71 -50
143 -57 159 -7 17 -13 33 -14 38 -2 4 -3 8 -5 10 -1 1 -3 10 -5 20 -5 25 -15
34 -15 14 0 -13 -9 -17 -41 -17 l-40 0 6 -107 c4 -60 11 -143 16 -186 6 -42 8
-81 5 -86 -3 -5 -2 -31 4 -58 5 -28 6 -60 3 -73 -6 -22 -6 -22 -19 6 -8 19
-13 23 -13 12 -1 -14 -10 -18 -40 -18 -29 0 -41 -5 -44 -18 -2 -9 -5 86 -6
212 -1 126 -4 233 -7 238 -3 5 -6 32 -6 60 1 27 -1 48 -3 46 -2 -2 -11 -59
-20 -128 -9 -68 -18 -127 -21 -131 -2 -4 -9 -54 -15 -111 -19 -188 -21 -198
-30 -198 -5 0 -9 9 -9 20 0 23 -15 27 -24 5 -3 -8 -1 -15 4 -15 6 0 10 -10 10
-22 0 -22 -1 -22 -25 6 -25 29 -28 53 -6 49 18 -4 13 25 -8 46 -17 17 -20 17
-33 2 -26 -31 -30 -41 -14 -41 9 0 16 7 16 15 0 8 7 15 15 15 8 0 15 -7 15
-15 0 -9 -7 -18 -15 -21 -19 -8 -19 -30 0 -38 8 -3 15 -12 15 -21 0 -8 -7 -15
-15 -15 -8 0 -15 6 -15 14 0 8 -7 16 -15 20 -8 3 -15 12 -15 21 0 8 -4 15 -10
15 -5 0 -10 -7 -10 -15 0 -9 -7 -18 -15 -21 -18 -7 -20 -31 -3 -36 8 -3 8 -9
0 -24 -11 -18 -11 -18 -12 4 0 12 -4 22 -10 22 -5 0 -10 7 -10 15 0 8 5 15 10
15 6 0 10 10 10 23 0 13 5 28 12 35 8 8 8 15 0 25 -8 10 -7 22 5 50 10 20 21
37 25 37 5 0 3 8 -4 19 -9 15 -8 26 7 57 10 22 18 54 16 72 -1 17 2 32 7 32
13 0 31 79 18 83 -7 3 -7 9 3 20 7 10 10 17 6 17 -5 0 -1 8 7 18 8 9 14 22 13
27 -3 20 -19 49 -37 67 -17 17 -18 17 -28 -1 -8 -16 -7 -18 10 -14 14 4 20 0
20 -10 0 -36 -39 -19 -52 23 -3 8 -7 1 -10 -16 -3 -22 -1 -31 8 -27 18 7 26
-12 18 -44 -7 -25 -8 -25 -15 -8 -6 17 -8 16 -8 -8 -1 -25 -3 -27 -22 -16
l-21 11 23 24 c12 13 18 24 13 24 -5 0 -17 -12 -27 -26 -18 -25 -18 -25 7 -51
26 -26 34 -53 16 -53 -5 0 -10 9 -10 21 0 11 -4 18 -9 14 -6 -3 -15 4 -21 15
-6 11 -15 20 -21 20 -6 0 -8 -4 -4 -9 3 -5 0 -16 -7 -23 -19 -20 -38 -50 -44
-70 -4 -10 -10 -18 -15 -18 -5 0 -9 -7 -9 -15 0 -8 5 -15 10 -15 6 0 10 -9 10
-20 0 -23 -18 -27 -26 -5 -8 19 -24 19 -24 0 0 -8 5 -15 10 -15 6 0 10 -9 10
-20 0 -26 -14 -25 -33 3 -13 18 -16 19 -16 5 -1 -9 4 -20 9 -23 6 -3 10 -16
10 -28 0 -20 -2 -20 -25 8 -29 36 -31 51 -8 64 10 5 15 12 11 16 -3 4 -16 -3
-29 -16 -18 -18 -20 -25 -10 -40 14 -23 14 -49 1 -49 -5 0 -10 -7 -10 -15 0
-9 -7 -18 -15 -21 -8 -4 -15 -12 -15 -20 0 -17 -16 -18 -26 -2 -4 6 0 16 9 23
21 15 22 31 2 39 -8 3 -15 12 -15 21 0 8 -4 15 -10 15 -5 0 -10 -7 -10 -15 0
-9 -7 -18 -15 -21 -8 -4 -15 -15 -15 -25 0 -23 -18 -25 -27 -3 -4 10 0 20 10
26 10 5 17 16 17 23 0 8 5 15 10 15 6 0 10 5 10 12 0 6 8 20 17 30 13 14 14
21 5 30 -15 15 -16 38 -2 38 6 0 10 -7 10 -15 0 -17 16 -20 25 -5 3 6 -3 22
-14 36 -23 29 -27 44 -10 44 5 0 7 -5 3 -11 -4 -7 -1 -10 7 -7 8 3 15 15 17
27 3 18 6 20 18 10 8 -6 14 -18 14 -26 0 -24 18 -4 25 28 6 27 11 30 33 26 21
-4 141 40 161 59 2 2 9 29 15 61 8 40 17 58 27 58 9 0 27 8 42 18 22 14 27 15
27 3 0 -8 7 -22 16 -30 9 -9 12 -21 8 -28 -5 -7 3 -5 18 4 14 10 48 23 75 29
26 7 55 18 63 25 8 7 32 15 53 19 36 7 85 54 70 68 -3 3 -2 14 2 24 6 16 8 15
21 -9 17 -33 44 -36 103 -12 28 11 43 24 50 45 9 27 13 29 48 23 31 -4 45 -1
73 19 41 30 60 34 37 9z"/>
</g>
</svg>
